<svg xmlns="http://www.w3.org/2000/svg" xmlns:xlink="http://www.w3.org/1999/xlink" data-name="Layer 1" preserveAspectRatio="xMidYMid meet" version="1.0" viewBox="0.0 0.0 222.8 222.8" zoomAndPan="magnify" style="fill: rgb(255, 255, 255);" original_string_length="1762" width="101.25222983244858px" height="101.25222983244858px"><g id="__id9_srq2dclt6"><path d="M0 0H222.83V222.83H0z" style="fill: rgb(8, 63, 84);"/></g><g><g id="__id10_srq2dclt6"><path d="M142.51,49.33c-5.53-3.61-9.52-9.37-10.77-16.1-.27-1.45-.42-2.95-.42-4.48h-17.65l-.03,70.73c-.3,7.92-6.82,14.28-14.81,14.28-2.48,0-4.82-.62-6.88-1.7-4.72-2.49-7.95-7.44-7.95-13.13,0-8.18,6.66-14.84,14.84-14.84,1.53,0,2.99.25,4.38.69v-18.02c-1.43-.2-2.89-.32-4.38-.32-17.91,0-32.49,14.57-32.49,32.49,0,10.99,5.49,20.72,13.87,26.6,5.28,3.7,11.69,5.89,18.62,5.89,17.91,0,32.49-14.57,32.49-32.49v-35.87c6.92,4.97,15.4,7.9,24.56,7.9v-17.65c-4.93,0-9.52-1.47-13.37-3.98Z" style="fill: inherit;"/></g><g id="__id11_srq2dclt6"><path d="M28.47,151.34h28.44l-2.61,8.14h-7.38s0,30.08,0,30.08h-9.19v-30.08l-9.25.02v-8.15Z" style="fill: inherit;"/><path d="M103.5,151.34h29.1l-2.61,8.14h-8.02s0,30.08,0,30.08h-9.21v-30.08l-9.25.02v-8.15Z" style="fill: inherit;"/><path d="M58.64 163.49L67.76 163.49 67.75 189.55 58.7 189.55 58.64 163.49z" style="fill: inherit;"/><path d="M71.38,151.23h9.11v17.8l9.03-8.86h10.87s-11.42,11.08-11.42,11.08l12.79,18.3h-10.03l-8.53-12.69-2.7,2.62v10.07h-9.11v-38.32Z" style="fill: inherit;"/><path d="M163.99,151.23h9.11v17.8l9.03-8.86h10.87s-11.42,11.08-11.42,11.08l12.79,18.3h-10.03l-8.53-12.69-2.7,2.62v10.07h-9.11v-38.32Z" style="fill: inherit;"/><circle cx="63.2" cy="155.93" r="4.59" style="fill: inherit;"/><path d="M144.68,158.35c-8.62,0-15.6,6.98-15.6,15.6s6.98,15.6,15.6,15.6,15.6-6.98,15.6-15.6-6.98-15.6-15.6-15.6ZM144.68,181.54c-4.19,0-7.58-3.4-7.58-7.58s3.4-7.58,7.58-7.58,7.58,3.4,7.58,7.58-3.4,7.58-7.58,7.58Z" style="fill: inherit;"/></g></g></svg>