<svg xmlns="http://www.w3.org/2000/svg" xmlns:xlink="http://www.w3.org/1999/xlink" viewBox="0 0 1600 2400" style="fill: rgb(250, 242, 220);" original_string_length="32797" width="106.85864300785262px" height="160.2879645117789px"><path d="M758.5 196.68c-30.32.908-68.763 4.129-71.819 6.017-.512.316-10.887 1.611-23.056 2.878-12.169 1.266-25.95 3.186-30.625 4.266s-11.425 2.264-15 2.632c-13.916 1.431-25.533 3.685-35.797 6.946-5.887 1.87-13.759 3.907-17.495 4.527-3.735.62-9.81 2.216-13.5 3.547s-12.558 3.8-19.708 5.487c-17.078 4.03-22.5 5.862-22.5 7.6 0 .898-1.059 1.42-2.882 1.42-3.526 0-29.244 8.872-37.564 12.959-3.33 1.635-9.429 4.17-13.554 5.632s-11.023 4.659-15.328 7.105-9.48 5.035-11.5 5.752-11.322 6.008-20.672 11.758c-30.387 18.685-38.451 24.159-39.102 26.544-.338 1.238-1.354 2.257-2.256 2.265-2.354.021-26.582 19.759-26.949 21.954-.168 1.01-1.592 2.368-3.164 3.019-1.599.663-3.41 2.519-4.114 4.216-.69 1.668-2.595 3.847-4.233 4.843-7.411 4.507-20.276 18.063-32.991 34.763-1.545 2.03-4.311 5.265-6.147 7.19-1.835 1.925-4.474 5.778-5.863 8.563-1.389 2.784-3.313 5.709-4.275 6.5-3.292 2.702-11.438 16.238-12.994 21.591-.893 3.071-2.131 5.346-2.911 5.346-2.354 0-20.39 38.305-25.634 54.443-1.063 3.269-3.25 8.669-4.862 12-1.942 4.012-4.312 12.639-7.021 25.557-2.25 10.725-4.937 23.466-5.972 28.313s-2.368 14.072-2.963 20.5-1.757 15.737-2.582 20.687c-2.413 14.469-3.135 40.228-2.314 82.5.625 32.187 1.227 43.388 3.25 60.5 1.366 11.55 2.995 25.725 3.621 31.5s1.999 14.1 3.05 18.5c1.052 4.4 1.915 9.803 1.919 12.007s.464 5.578 1.022 7.5c.559 1.921 1.874 8.893 2.924 15.493s2.609 13.942 3.464 16.315 2.964 11.364 4.687 19.979 3.564 16.795 4.09 18.179 2.504 9.267 4.396 17.521c4.21 18.364 6.187 24.506 7.888 24.506 1.574 0 2.5 3.106 2.534 8.5.014 2.2.681 6.25 1.482 9 2.766 9.494 10.206 30.014 12.508 34.5 1.271 2.475 3.538 8.1 5.039 12.5 6.341 18.592 11.083 30.714 13.53 34.591 1.437 2.276 3.268 5.999 4.069 8.273 1.326 3.765 10.701 23.228 28.081 58.3 4.254 8.584 7.179 13.335 8.408 13.656 1.247.326 1.885 1.388 1.885 3.135 0 4.77 5.538 14.545 8.241 14.545 1.211 0 1.759.781 1.759 2.508 0 1.379 3.228 7.792 7.173 14.25 3.946 6.458 8.23 13.862 9.521 16.454 1.291 2.591 2.974 5.066 3.74 5.5.767.433 3.296 4.163 5.62 8.288s5.514 8.978 7.087 10.785c1.572 1.806 2.859 4.013 2.859 4.903 0 .891 1.71 3.238 3.8 5.216s5.938 6.633 8.551 10.346c2.612 3.713 5.367 6.75 6.12 6.75s1.669 1.36 2.034 3.023c.481 2.191 1.744 3.573 4.59 5.026 3.239 1.652 4.137 2.79 5.13 6.502.679 2.54 2.15 5.12 3.376 5.923 1.195.783 3.203 3.134 4.463 5.225 2.598 4.313 9.442 13.246 15.598 20.359 2.289 2.646 4.442 5.695 4.785 6.776.344 1.082 1.734 2.245 3.089 2.586 1.537.386 2.464 1.333 2.464 2.518 0 1.046 2.146 4.3 4.769 7.231 2.622 2.932 6.55 7.581 8.728 10.331 6.316 7.974 13.746 15.574 16.739 17.122 1.52.786 2.764 2.012 2.764 2.724 0 .711 1.389 2.837 3.087 4.724 1.697 1.886 3.745 4.689 4.55 6.228.806 1.54 3.297 4.454 5.537 6.478s6.23 6.839 8.868 10.702 6.97 9.575 9.627 12.695 8.311 9.765 12.565 14.768 8.39 10.364 9.191 11.914 3.059 4.04 5.017 5.533 4.299 4.155 5.201 5.914c.903 1.759 4.044 5.802 6.981 8.985s9.285 10.752 14.108 16.82c4.822 6.068 11.623 13.989 15.112 17.601s7.695 8.763 9.346 11.446 3.817 5.314 4.814 5.848 4.637 4.689 8.091 9.234 9.457 11.773 13.342 16.062c3.885 4.288 8.79 10.363 10.901 13.5 2.112 3.136 4.812 6.301 6 7.032 1.189.732 3.512 3.293 5.162 5.69 7.757 11.272 17.095 22.48 18.73 22.48.973 0 1.77.711 1.77 1.58 0 1.701 4.837 7.938 11.884 15.325 2.412 2.527 5.52 6.395 6.908 8.595 1.387 2.2 4.486 6.25 6.885 9s5.33 7.475 6.515 10.5l2.153 5.5.77 261.5c.823 279.51.973 287.005 5.79 288.265.968.253 2.247 2.322 2.99 4.839 1.61 5.443 5.274 10.415 9.157 12.423 1.621.838 2.948 2.155 2.948 2.926 0 2.146 4.455 5.197 15.873 10.872l10.414 5.175H865.5l10.466-4c10.185-3.893 10.737-4.268 20.612-14 8.348-8.228 10.835-11.409 14.034-17.948l3.888-7.948.5-271.588.5-271.588 5.718-7.597c3.145-4.179 6.255-8.775 6.911-10.214s1.983-2.617 2.95-2.617 2.745-1.597 3.952-3.55 5.071-7.171 8.587-11.599c3.516-4.427 6.654-9.087 6.972-10.355s1.385-2.518 2.37-2.775 3.7-3.113 6.034-6.345 5.99-7.545 8.125-9.586c2.135-2.04 3.881-4.624 3.881-5.741 0-1.214 1.391-2.939 3.457-4.29 1.916-1.252 4.246-4.042 5.227-6.259.974-2.2 4.047-6.475 6.829-9.5s6.815-7.75 8.961-10.5 6.066-7.336 8.713-10.19c2.647-2.855 4.813-5.631 4.813-6.17s3.619-5.179 8.042-10.31 8.304-10.567 8.625-12.08c.337-1.588 1.27-2.778 2.208-2.816 1.944-.078 13.093-13.515 18.439-22.222 2.097-3.417 4.436-6.153 5.197-6.082.76.072 3.544-2.623 6.186-5.988s7.165-8.768 10.053-12.007 5.25-6.742 5.25-7.786c0-1.086 1.031-2.291 2.41-2.815 1.326-.504 5.247-4.655 8.714-9.225s9.133-11.108 12.59-14.53 6.286-6.721 6.286-7.332 3.713-5.071 8.25-9.91c8.674-9.25 17.75-20.956 17.75-22.893 0-.629.861-1.144 1.914-1.144 1.218 0 3.024-1.804 4.967-4.961 1.679-2.728 7.036-9.366 11.905-14.75s10.266-11.868 11.992-14.409 8.27-10.513 14.541-17.715c8.793-10.099 11.701-14.163 12.71-17.767.817-2.92 1.98-4.849 3.098-5.141 1.539-.403 8.54-8.751 15.373-18.33 1.1-1.542 3.834-5.194 6.075-8.115s7.375-10.037 11.408-15.812c4.034-5.775 8.517-12.075 9.962-14 4.446-5.921 14.636-22.318 16.003-25.75.712-1.787 1.871-3.25 2.575-3.25s1.787-1.45 2.404-3.222c.618-1.772 2.196-4.359 3.506-5.75 4.17-4.424 19.606-32.519 35.729-65.028 16.721-33.713 21.454-44.681 24.997-57.916 1.444-5.396 2.798-8.521 3.805-8.785 1.449-.379 4.23-7.541 13.51-34.799 7.165-21.046 7.102-20.839 19.089-63 4.386-15.426 8.409-31.104 10.905-42.5 1.385-6.325 3.892-17.35 5.571-24.5s3.491-17.05 4.028-22 1.415-10.125 1.951-11.5c.537-1.375 1.383-5.875 1.88-10s1.647-9.488 2.556-11.918c1.175-3.142 2.214-12.964 3.598-34 1.071-16.27 2.397-31.209 2.947-33.198 1.304-4.71 1.334-99.641.035-106.95-.531-2.989-1.683-12.634-2.56-21.434-1.676-16.82-4.391-32.179-6.992-39.552-.853-2.416-2.205-8.455-3.005-13.42s-2.784-12.479-4.41-16.696c-1.625-4.217-3.52-10.405-4.211-13.75-.976-4.725-1.658-6.082-3.056-6.082-1.447 0-1.805-.834-1.827-4.25-.042-6.624-6.575-21.63-19.821-45.53-6.62-11.946-12.336-22.508-12.701-23.47s-1.517-1.75-2.558-1.75c-1.104 0-1.893-.698-1.893-1.674 0-2.376-12.601-18.547-23.558-30.233-5.115-5.455-10.019-11.308-10.897-13.006s-2.257-3.087-3.065-3.087-6.499-5.194-12.649-11.542-13.298-12.914-15.885-14.59c-2.588-1.677-5.261-4.088-5.941-5.358-.68-1.271-2.984-3.099-5.121-4.062-2.136-.964-3.884-2.306-3.884-2.983 0-.678-3.937-4.091-8.75-7.587-4.812-3.495-11.188-8.339-14.168-10.764-6.908-5.624-20.776-14.367-28.832-18.177-3.437-1.626-6.25-3.537-6.25-4.247 0-.709-10.687-6.608-23.75-13.109-38.618-19.22-46.137-22.579-61.75-27.582-3.85-1.233-9.925-3.585-13.5-5.227-3.575-1.641-10.843-4.065-16.151-5.386-5.309-1.321-12.565-3.498-16.125-4.838s-10.468-3.165-15.349-4.055-12.659-2.752-17.283-4.136-16.1-4.038-25.5-5.895c-9.401-1.857-21.367-4.287-26.592-5.4s-15.575-2.712-23-3.555-19.125-2.411-26-3.485c-16.752-2.617-44.501-4.942-65.948-5.526-23.227-.633-85.194-1.157-96.552-.816m-25.011 37.164c-1.319 1.321-24.768 4.269-37.989 4.776-12.444.477-16.265.945-17.19 2.106-1.416 1.776-12.02 3.167-24.614 3.23-6.215.031-13.423 1.061-24.506 3.502-8.636 1.902-21.324 4.362-28.196 5.465-6.872 1.104-15.142 2.92-18.379 4.035s-9.82 2.71-14.629 3.544c-9.561 1.659-14.986 3.272-14.986 4.455 0 1.619-15.951 7.043-20.715 7.043-3.019 0-6.116.755-8.301 2.023-7.277 4.224-13.667 6.702-18.799 7.29-3.88.444-6.925 1.683-11.278 4.591-3.811 2.544-7.669 4.228-10.686 4.664-6.214.897-19.861 6.397-29.221 11.776-4.125 2.37-12.728 6.864-19.118 9.985-8.48 4.143-13.173 7.169-17.37 11.202-3.794 3.645-8.631 6.901-14.209 9.563-4.652 2.22-9.84 5.358-11.529 6.971S388.095 343 387.352 343c-.744 0-1.352.823-1.352 1.829 0 1.216-1.676 2.614-5 4.171-2.75 1.288-5 2.868-5 3.51 0 .643-1.142 1.69-2.539 2.326-1.396.636-4.705 3.183-7.354 5.66S360.809 365 360.218 365s-2.533 2.25-4.315 5c-2.277 3.515-3.896 5-5.45 5-1.493 0-2.598.935-3.404 2.881-.656 1.585-2.767 3.723-4.69 4.75-2.299 1.229-3.686 2.807-4.051 4.608-.304 1.507-3.119 5.557-6.254 9-3.136 3.444-6.793 7.592-8.128 9.219s-4.498 5.227-7.031 8C310.98 419.934 306 426.908 306 428.717c0 .78-3.145 6.554-6.988 12.833-8.233 13.449-21.262 38.071-23.495 44.4-.863 2.448-2.203 5.151-2.978 6.007-2.14 2.365-9.912 23.938-13.885 38.543-4.702 17.285-5.916 24.43-5.769 33.961.119 7.708-2.384 31.919-3.483 33.698-.868 1.404-2.323 25.114-3.394 55.287-.782 22.043-.729 28.108.25 28.712 1.613.995 2.382 21.366.876 23.181-1.365 1.644-.313 5.667 1.319 5.041.95-.365 1.394 2.634 1.826 12.319.314 7.056 1.268 15.067 2.125 17.852.965 3.135 1.907 12.235 2.484 24 .94 19.188 3.76 37.48 6.549 42.474.841 1.506 1.615 6.754 1.916 13 .463 9.567 4.372 31.492 6.715 37.654.53 1.393 2.131 7.773 3.559 14.177s4.815 18.619 7.526 27.144 5.442 17.525 6.069 20 2.39 6.471 3.917 8.88c1.528 2.409 3.054 6.459 3.393 9s1.437 6.645 2.44 9.12 2.614 7.425 3.579 11c2.221 8.23 7.854 20.978 20.99 47.5 5.72 11.55 10.689 22.243 11.042 23.763.352 1.519 1.225 3.094 1.939 3.5.714.405 2.269 3.662 3.456 7.237s3.859 9.425 5.939 13 4.613 8.862 5.63 11.75c1.233 3.504 2.404 5.25 3.521 5.25 1.131 0 2.084 1.471 2.945 4.547.7 2.501 2.1 5.598 3.11 6.882 1.01 1.285 2.285 3.514 2.832 4.953.548 1.44 1.676 2.618 2.508 2.618.998 0 1.736 1.393 2.167 4.086.359 2.247 1.24 4.311 1.958 4.586.717.275 2.64 3.354 4.272 6.842 4.258 9.1 10.291 19.176 16.365 27.334 2.901 3.897 7.249 10.691 9.663 15.1 2.413 4.408 6.741 10.616 9.618 13.795s5.535 7.169 5.908 8.867 2.276 4.618 4.23 6.489c1.953 1.87 5.571 6.214 8.041 9.651 2.47 3.438 5.071 6.25 5.78 6.25 1.649 0 10.497 10.667 11.718 14.127.51 1.444 2.702 4.053 4.872 5.797 2.659 2.137 3.945 3.97 3.945 5.623 0 1.35.586 2.453 1.304 2.453 1.765 0 6.863 5.548 9.897 10.772 3.348 5.761 13.578 17.228 15.372 17.228.794 0 2.169 1.813 3.055 4.029s2.489 4.498 3.559 5.071 3.278 3.148 4.905 5.721 6.905 8.729 11.728 13.679 11.563 12.688 14.978 17.196 7.153 8.857 8.306 9.664c1.973 1.382 4.032 4.111 12.178 16.14 1.862 2.75 7.848 9.867 13.302 15.815s11.874 13.148 14.266 16c6.448 7.686 15.894 18.332 22.399 25.244 3.162 3.36 5.467 6.391 5.123 6.736-.345.345 1.455 2.943 4 5.774s4.628 5.802 4.628 6.602 3.269 4.915 7.264 9.142c3.996 4.228 9.64 10.7 12.544 14.383s6.117 6.963 7.142 7.288 2.57 2.358 3.433 4.516c.958 2.393 2.723 4.52 4.523 5.451 1.624.84 3.23 2.404 3.57 3.475s2.835 4.308 5.544 7.194 5.686 6.852 6.614 8.813 4.904 6.717 8.835 10.567c4.044 3.961 8.374 9.388 9.974 12.5 5.456 10.616 6.242 11.834 11.699 18.141 3.027 3.498 6.513 7.822 7.748 9.609s3.019 3.25 3.962 3.25 2.552 1.462 3.572 3.25c1.02 1.787 3.089 4.6 4.597 6.25s3.261 4.63 3.896 6.622 2.938 5.273 5.118 7.29 3.965 4.046 3.965 4.508 4.388 1.639 9.75 2.616c11.167 2.036 54.25 3.273 54.25 1.558 0-.538-1.913-1.151-4.25-1.362-2.337-.21 10.9-.461 29.417-.557 18.516-.096 33.816.212 34 .685.186.48 10.24.471 22.744-.019l22.411-.88 3.297-3.731c1.814-2.051 3.316-4.495 3.339-5.43s.713-2.076 1.533-2.535 2.732-2.683 4.25-4.943c4.764-7.093 10.695-14.194 12.352-14.787.876-.314 3.076-2.635 4.889-5.159 1.812-2.524 5.483-7.315 8.157-10.646 2.673-3.332 4.861-6.808 4.861-7.725s1.095-2.253 2.434-2.97c1.339-.716 2.961-2.575 3.606-4.13.644-1.556 2.68-3.979 4.523-5.386 1.844-1.406 6.184-6.711 9.645-11.788s8.181-11.08 10.489-13.34c4.911-4.809 13.303-16.741 13.303-18.915 0-.828 1.424-2.371 3.165-3.43 1.74-1.059 3.747-3.309 4.458-5.001.711-1.691 2.1-3.361 3.085-3.709 3.183-1.126 6.393-4.688 10.412-11.556 2.163-3.695 6.613-9.545 9.888-13 3.276-3.454 5.964-6.791 5.974-7.415s1.144-1.873 2.52-2.774c1.376-.902 3.722-3.541 5.213-5.865s4.415-6.128 6.498-8.454c2.083-2.325 3.787-4.622 3.787-5.105 0-.482 1.99-2.135 4.423-3.673 2.846-1.799 5.384-4.561 7.117-7.745 1.488-2.734 7.804-10.027 14.106-16.288 7.582-7.533 12.091-12.873 13.435-15.91 1.112-2.515 3.147-5.309 4.522-6.21 1.374-.901 3.219-3.034 4.099-4.739s4.148-5.928 7.262-9.381 9.909-11.865 15.099-18.693 9.911-12.44 10.491-12.472c1.67-.089 7.446-6.485 7.446-8.245 0-.877 1.117-1.874 2.482-2.217 1.419-.356 3.19-2.008 4.136-3.858.91-1.78 3.168-4.925 5.018-6.989s3.364-4.441 3.364-5.281c0-.841.629-1.77 1.399-2.065.769-.296 3.472-3.656 6.008-7.469s5.233-6.932 5.997-6.932c.763 0 2.79-2.185 4.503-4.855s4.06-5.708 5.214-6.75 4.045-4.901 6.423-8.575 5.198-7.147 6.265-7.718 3.459-3.976 5.315-7.566c2.109-4.079 4.003-6.53 5.047-6.532 1.026-.003 1.914-1.116 2.304-2.889.348-1.586 2.409-4.478 4.579-6.426 2.562-2.301 3.946-4.404 3.946-5.999 0-1.616.685-2.636 2-2.98 1.288-.337 3.07-2.909 5.009-7.229 1.655-3.689 5.033-8.958 7.507-11.71 2.475-2.752 5.676-7.569 7.115-10.704 1.439-3.134 3.535-6.119 4.658-6.633s3.879-4.534 6.126-8.934 7.078-12.275 10.735-17.5c6.625-9.464 20.85-35.206 20.85-37.73 0-1.906 5.434-12.076 8.96-16.77 3.278-4.362 3.13-4.075 10.258-20 2.707-6.05 7.355-15.95 10.329-22 2.973-6.05 7.184-16.009 9.357-22.13 2.173-6.122 5.731-15.347 7.908-20.5 2.176-5.154 4.685-11.918 5.575-15.032s2.896-8.514 4.458-12 3.418-8.813 4.124-11.838 2.809-9.448 4.674-14.273c6.603-17.079 22.772-82.687 24.446-99.188.56-5.521 1.665-12.289 2.455-15.039 3.782-13.157 4.456-17.744 4.456-30.335 0-7.619.416-13.304 1-13.665.55-.34 1.011-3.179 1.025-6.309.013-3.13 1.217-14.241 2.674-24.691 2.387-17.116 2.69-22.719 3.049-56.5.437-41.046-.182-51.886-4.778-83.687-3.184-22.034-5.227-32.128-8.057-39.813-1.012-2.75-2.761-8.973-3.887-13.83s-3.57-12.514-5.434-17.017-3.916-10.204-4.561-12.67c-.644-2.466-6.723-15.772-13.509-29.57-9.498-19.312-13.534-26.448-17.535-31-2.859-3.252-6.586-7.938-8.283-10.413-5.774-8.419-21.951-27.794-24.221-29.009-1.244-.666-2.785-2.358-3.424-3.76s-4.738-5.912-9.11-10.022c-4.372-4.109-7.949-7.999-7.949-8.644 0-1.719-6.329-7.565-8.189-7.565-.877 0-1.855-1.012-2.174-2.25-.649-2.52-14.087-13.502-21.385-17.477-2.614-1.424-5.652-3.381-6.752-4.351-1.1-.969-3.831-2.489-6.068-3.378-2.324-.923-5.672-3.534-7.807-6.089-3.568-4.268-9.971-8.455-12.93-8.455-.762 0-2.176-.874-3.144-1.943-.967-1.069-3.062-2.23-4.655-2.58s-2.914-1.163-2.936-1.806c-.048-1.407-10.981-7.898-16.13-9.577-2.019-.658-4.211-1.848-4.872-2.645-.662-.797-2.67-1.449-4.464-1.449-2.333 0-3.399-.527-3.745-1.852-.359-1.374-2.455-2.316-8.129-3.652-4.204-.99-9.076-2.857-10.826-4.148s-4.261-2.348-5.578-2.348-3.143-.848-4.056-1.885c-2.622-2.978-37.788-16.234-47.955-18.078-3.352-.608-9.213-2.391-13.023-3.962-8.639-3.562-19.485-6.075-26.223-6.075-4.143 0-5.239-.356-5.624-1.827-.393-1.503-3.696-2.467-18.656-5.443-9.999-1.989-20.654-3.901-23.679-4.248s-8.65-1.476-12.5-2.508c-10.416-2.792-27.011-4.974-37.831-4.974-5.266 0-10.609-.411-11.872-.913s-6.347-1.439-11.297-2.081c-4.95-.643-14.625-2.033-21.5-3.089-11.244-1.727-19.218-1.945-79.334-2.169-36.759-.136-66.988-.093-67.177.096M561.776 373.968c-5.535 1.006-8.641 3.042-14.982 9.821-5.526 5.908-7.794 12.424-7.794 22.393 0 5.161.339 6.818 1.393 6.818 1.626 0 2.607 2.135 2.607 5.675 0 1.634.67 2.687 1.915 3.013 1.054.276 2.183 1.567 2.51 2.87.699 2.785 6.965 6.613 13.802 8.432 7.204 1.916 21.228.896 26.53-1.93 4.871-2.596 11.861-10.042 13.875-14.778.878-2.066 1.368-7.139 1.368-14.173v-10.956l-3.662-4.797c-4.717-6.18-6.852-8.016-12.256-10.537-5.017-2.341-17.563-3.259-25.306-1.851M678 373.876c-9.174 1.485-16.762 8.215-19.444 17.246-1.974 6.648-2.004 20.008-.058 26.558 1.817 6.121 4.567 9.01 12.701 13.345 5.693 3.035 6.965 3.313 15.256 3.341 12.731.044 16.872-1.393 23.69-8.216 4.332-4.336 6.019-6.913 7.25-11.082 1.873-6.339 2.061-14.792.495-22.269-1.499-7.153-9.158-14.91-17.032-17.248-6.434-1.911-16.735-2.666-22.858-1.675m111 .054c-5.556.819-7.545 2.084-12 7.636-5.151 6.419-6.883 11.655-6.946 21.002-.077 11.538 1.778 16.839 8.165 23.322 6.959 7.064 10.279 8.401 20.781 8.367 10.975-.036 16.28-1.523 22.744-6.375 8.3-6.232 10.439-11.823 10.385-27.141-.033-9.489-.133-9.908-3.595-15.123-4.046-6.096-9.638-10.389-15.218-11.685-4.309-1-17.538-1.001-24.316-.003m115.32.012c-7.943 1.261-14.149 6.743-18.75 16.558-2.254 4.809-3.442 20.028-1.699 21.771.621.621 1.129 2.302 1.129 3.735 0 5.923 11.587 16.287 19.774 17.686 19.027 3.252 34.177-3.27 39.342-16.937 3.325-8.797 3.34-21.259.033-28.006-2.767-5.646-11.116-13.284-15.516-14.193-5.455-1.128-18.937-1.469-24.313-.614m116.335.209c-5.819 1.114-9.328 3.262-11.703 7.168-.971 1.597-2.795 3.417-4.054 4.045-3.58 1.784-6.084 7.09-6.645 14.076-.783 9.75.454 17.059 3.5 20.678 1.433 1.703 3.312 4.511 4.176 6.24 4.867 9.737 32.476 11.672 43.759 3.067 3.338-2.547 9.879-11.584 12.102-16.722 1.269-2.934 1.61-12.608.58-16.453-.332-1.238-1.168-2.25-1.859-2.25-.69 0-1.535-1.749-1.877-3.886-.492-3.079-1.851-5.025-6.539-9.366-5.624-5.206-6.298-5.535-13.547-6.613-8.668-1.289-11.083-1.287-17.893.016m-354.682 89.841-147.527.508-4.866 2.504c-5.847 3.009-10.412 8.356-11.635 13.627-.494 2.13-.888 42.526-.877 89.869.022 93.783-.224 89.728 5.896 97.455 6.013 7.592 5.548 7.505 42.036 7.873 40.539.41 54.065-.283 57.111-2.924 1.207-1.047 2.601-1.904 3.098-1.904s1.876-2.138 3.066-4.75c2.011-4.418 2.201-6.81 2.72-34.25l.558-29.5 3.937-7.367c2.166-4.052 4.966-8.041 6.223-8.865 3.462-2.268 74.103-1.932 78.563.375a18.7 18.7 0 0 1 9.72 12.836c1.26 6.07.906 310.768-.365 314.147-.44 1.169-1.81 2.667-3.046 3.328-1.235.662-3.023 2.517-3.972 4.124L704.887 924l-17.194.053c-9.456.029-23.134.408-30.396.841l-13.203.788-4.464 3.658c-7.751 6.351-7.808 6.736-7.446 50.227l.316 37.933 4.224 6c2.323 3.3 5.143 6.571 6.266 7.268 2.643 1.642 306.29 1.826 312.211.189 4.1-1.134 10.045-7.295 12.377-12.829 1.144-2.712 1.422-10.692 1.422-40.76 0-36.15-.066-37.444-2-39.1-1.1-.942-2-2.452-2-3.355 0-.904-.882-2.765-1.96-4.135-3.45-4.386-10.901-5.643-37.54-6.333-23.254-.603-24.177-.705-29.697-3.284-3.308-1.545-6.243-3.709-7-5.161-1.051-2.017-1.354-32.959-1.565-160.259l-.262-157.759 4.217-4.575c7.652-8.302 8.124-8.408 37.517-8.403 35.195.006 51.29.867 51.29 2.744 0 .792.918 1.679 2.04 1.973 1.122.293 2.81 1.939 3.75 3.656 1.488 2.717 1.775 7.552 2.21 37.203l.5 34.08 2.802 3.671c5.6 7.338 4.427 7.169 49.698 7.169 46.422 0 43.959.442 51.229-9.186l4.271-5.657.268-87.579c.179-58.593-.082-89.263-.788-92.668-1.778-8.575-10.068-14.564-22.686-16.388-6.954-1.005-121.717-1.014-407.321-.03M433 482.634c-8.534 1.622-12.658 3.83-18.604 9.961-7.293 7.518-8.886 11.93-8.185 22.659.563 8.625 2.972 13.89 9.6 20.975 6.848 7.321 8.492 7.91 21.91 7.846 10.474-.05 11.972-.291 15.825-2.549 5.403-3.166 12.141-10.715 14.753-16.526 2.743-6.104 2.856-17.051.238-23.086-1.054-2.428-3.366-6.242-5.139-8.476-5.689-7.168-20.962-12.596-30.398-10.804m716.987.662c-7.166 1.621-11.866 4.602-15.631 9.912-4.363 6.153-5.356 9.906-5.356 20.245 0 7.88.366 9.889 2.63 14.431 1.446 2.904 3.695 5.763 5 6.357 1.303.594 2.38 1.57 2.391 2.17s1.925 2.439 4.25 4.089c4.081 2.895 4.666 3.01 16.729 3.296 10.529.249 13.01.012 15.736-1.5 5.671-3.147 13.809-11.988 17.221-18.711 2.882-5.678 3.238-7.218 2.863-12.396-.803-11.102-10.221-23.455-20.569-26.978-5.263-1.792-19.163-2.295-25.264-.915M426.5 591.493c-4.876 1.712-15.029 12.084-18.25 18.644-3.391 6.905-3.114 15.532.759 23.72 4.539 9.594 6.406 11.75 11.478 13.247 2.993.884 4.513 1.889 4.513 2.985 0 1.361 1.57 1.776 8.895 2.349 12.831 1.004 22.171-1.938 27.443-8.644 1.424-1.812 3.32-4.121 4.213-5.132 4.744-5.367 6.578-20.929 3.533-29.98-1.742-5.181-10.558-15.564-14.673-17.284-4.45-1.859-22.523-1.798-27.911.095m720.98.864c-5.103 2.377-13.133 10.299-16.3 16.08-1.221 2.231-1.656 5.373-1.598 11.563.139 15.01 6.099 25.944 17.301 31.743 5.322 2.755 7.357 3.257 13.204 3.257 5.227 0 6.913-.338 6.913-1.386 0-.889 1.705-1.639 4.75-2.089 2.612-.386 6.219-1.814 8.014-3.175 3.864-2.928 10.803-12.069 12.812-16.879 1.949-4.662 1.976-21.322.036-22.066-.763-.293-1.632-1.756-1.931-3.25-.773-3.865-7.939-11.618-13.008-14.071-6.501-3.148-23.171-2.997-30.193.273M423.384 706.512c-17.945 9.155-23.156 32.268-10.899 48.34 3.763 4.934 10.972 9.148 15.648 9.148 1.027 0 1.867.675 1.867 1.5 0 1.19 1.444 1.5 7 1.5 5.26 0 7-.34 7-1.37 0-.883 1.607-1.551 4.518-1.879 5.939-.669 11.45-4.44 16.517-11.299 5.512-7.461 6.965-11.27 6.965-18.26 0-4.555-.676-7.199-3.011-11.782-3.805-7.468-5.678-9.644-9.739-11.315-1.788-.736-3.25-1.754-3.25-2.262 0-.509-2.363-2.025-5.25-3.369-4.112-1.914-6.901-2.447-12.866-2.454-6.745-.009-8.402.391-14.5 3.502m112.182-1.93c-4.78 1.75-7.201 3.827-7.952 6.82-.311 1.24-1.68 2.763-3.042 3.383-6.63 3.021-9.49 20.84-5.543 34.529 2.282 7.91 13.911 15.823 26.261 17.87 7.685 1.273 14.128-.311 21.284-5.235 10.091-6.942 13.374-13.679 13.404-27.503.019-8.864-.288-10.674-2.595-15.304-2.908-5.837-10.533-12.225-17.542-14.698-5.221-1.842-19.084-1.763-24.275.138m111.934-.524c-5.446 1.594-13.876 7.377-16.68 11.442-1.517 2.2-3.974 7.052-5.46 10.782-2.504 6.286-2.621 7.215-1.6 12.703 1.925 10.351 13.097 24.015 20.821 25.464 1.899.357 3.895.375 4.436.04.541-.334.983.043.983.838 0 1.881 4.795 2.565 11.05 1.576 9.586-1.515 23.245-11.316 26.071-18.705.567-1.484 1.288-6.623 1.601-11.421.739-11.296-.937-15.915-8.592-23.687-7.725-7.842-12.768-10.114-22.196-10-4.089.05-8.784.485-10.434.968m288.25-.342c-1.908.289-2.75 1.009-2.75 2.35 0 1.469-.7 1.934-2.908 1.934-4.006 0-11.484 7.43-14.828 14.734-2.17 4.74-2.59 7.081-2.552 14.22.024 4.7.51 9.708 1.078 11.129 1.816 4.539 10.044 11.726 17.83 15.574 9.302 4.597 16.797 5.013 25.107 1.393 4.856-2.115 13.273-9.718 13.273-11.989 0-.541.839-1.788 1.865-2.772 3.407-3.268 5.455-11.79 4.873-20.277-.847-12.358-4.935-18.068-17.455-24.381-4.423-2.231-6.401-2.608-13-2.481-4.281.082-9.02.337-10.533.566m109.397.359c-5.172 1.017-11.632 4.649-15.272 8.586-1.444 1.561-3.858 5.97-5.365 9.796-2.394 6.08-2.683 7.97-2.297 15 .533 9.707 2.763 14.591 9.279 20.327 5.367 4.724 11.544 7.816 18.669 9.344 7.182 1.54 11.773.653 19.041-3.679 13.684-8.157 16.058-12.237 16.608-28.541.352-10.432.17-12.026-1.816-15.919-3.022-5.925-11.201-13.675-15.77-14.944-4.362-1.211-16.847-1.195-23.077.03m107.587.013c-6.097 1.437-10.981 4.399-15.873 9.629-6.911 7.389-7.336 8.532-7.349 19.783-.011 8.866.295 10.624 2.697 15.5 3.531 7.167 8.601 12.268 15.622 15.716 4.804 2.359 6.898 2.779 13.723 2.752 6.863-.027 8.901-.46 13.777-2.927 8.19-4.144 13.144-8.769 16.299-15.217 3.691-7.544 4.032-20.312.733-27.446-2.835-6.132-8.788-12.593-12.317-13.368-1.563-.343-3.053-1.43-3.311-2.415-.767-2.934-15.009-4.125-24.001-2.007M425.175 817.142c-6.462 3.199-15.6 14.291-17.172 20.844-1.692 7.054-.846 17.45 1.85 22.73 3.072 6.015 11.79 14.085 16.647 15.409 2.2.599 8.05.898 13 .665 7.216-.34 10.016-.946 14.123-3.06 6.187-3.182 12.425-10.025 15.968-17.514 4.982-10.531 2.32-22.538-7.393-33.34-6.214-6.913-8.896-7.876-21.916-7.875-9.004 0-11.495.354-15.107 2.141m109.383-.894c-4.663 1.232-12.184 8.345-15.07 14.252-1.608 3.291-1.958 6.148-1.971 16.122l-.017 12.122 3.705 5.386c4.156 6.042 8.168 8.87 12.583 8.87 2.138 0 3.126.565 3.502 2 .477 1.824 1.364 2 10.079 2 12.751 0 18.596-2.155 25.422-9.372 6.201-6.557 7.196-9.905 7.203-24.228.006-10.664-.107-11.253-2.873-15-4.091-5.541-10.145-11.102-13.436-12.34-3.541-1.333-23.867-1.201-29.127.188M640 816.52c-4.198 1.842-13.708 11.699-15.627 16.198-.798 1.871-1.373 6.722-1.373 11.592v8.374l5.25 7.819c6.128 9.126 8.892 11.438 14.587 12.202 3.28.44 4.163.975 4.163 2.52 0 1.839.613 1.941 9.75 1.619 8.259-.291 10.632-.777 15.517-3.176 3.879-1.905 6.296-3.856 7.385-5.963.891-1.722 2.648-3.94 3.905-4.929 4.165-3.275 5.717-9.492 5.285-21.162-.382-10.328-.451-10.585-4.365-16.304-5.952-8.696-8.731-9.752-26.477-10.068-11.29-.2-15.275.083-18 1.278m289.869.985c-3.143 1.637-4.842 3.25-5.285 5.018-.421 1.676-1.7 2.97-3.584 3.627-4.083 1.423-9 11.287-9 18.054 0 7.439 2.926 17.964 5.155 18.547 1.015.265 1.845.964 1.845 1.554 0 2.722 4.894 7.836 9.5 9.926 4.227 1.918 6.701 2.269 16 2.269 10.145 0 11.356-.21 15.584-2.695 5.914-3.476 11.488-9.69 14.503-16.165 1.883-4.044 2.396-6.821 2.403-13.024.012-9.768-1.235-14.071-5.877-20.27-5.785-7.726-10.091-9.355-24.575-9.299-10.725.041-12.543.309-16.669 2.458m110.381-1.394c-3.195.757-4.25 1.489-4.25 2.948 0 1.25-.686 1.941-1.927 1.941-1.06 0-3.299 1.664-4.975 3.697-6.404 7.769-9.642 26.233-5.098 29.071 1.1.687 2 2.136 2 3.22 0 6.785 6.794 14.421 16.372 18.403 5.767 2.396 18.136 2.139 25.259-.526 6-2.245 13.04-7.969 16.28-13.236 3.064-4.983 4.455-14.887 3.1-22.072-1.615-8.559-6.543-17.323-11.808-21.001-4.194-2.929-4.616-3.007-17.5-3.227-7.262-.124-15.115.228-17.453.782m108.133-.085c-4.199 1.296-16.794 14.658-18.398 19.518-2.372 7.19.512 25.25 4.186 26.211.959.251 2.246 1.978 2.86 3.838 2.625 7.955 12.494 12.105 26.376 11.091 11.678-.853 17.109-3.028 23.254-9.312 7.023-7.183 9.76-14.419 8.842-23.372-1.117-10.894-8.726-23.301-16.356-26.669-4.31-1.903-25.865-2.816-30.764-1.305M541.658 925.174c-6.725.895-10.992 3.24-16.018 8.803-6.531 7.229-8.091 11.408-8.034 21.523.07 12.454 2.455 20.321 7.781 25.667 5.291 5.309 9.299 6.932 18.711 7.577 6.442.442 8.613.151 13.909-1.86 3.561-1.353 6.472-3.105 6.729-4.052.25-.918 1.764-2.211 3.364-2.873 3.521-1.459 8.647-7.11 10.525-11.604.866-2.072 1.375-7.119 1.375-13.627 0-9.103-.307-10.952-2.578-15.508-5.878-11.796-17.719-16.447-35.764-14.046M1048 924.74c-7.164.858-9.329 1.61-12.398 4.305-1.846 1.62-3.898 4.255-4.561 5.855s-1.998 3.117-2.969 3.371c-2.143.56-3.074 6.216-3.066 18.619.007 11.394 1.266 15.418 6.614 21.135 6.093 6.514 12.693 9.239 22.371 9.236 10.07-.002 18.699-1.967 19.336-4.402.278-1.063 1.38-1.859 2.573-1.859 2.689 0 7.408-6.456 9.077-12.419 1.861-6.645.939-21.881-1.676-27.703-2.899-6.456-8.654-12.484-13.615-14.26-4.006-1.434-16.42-2.509-21.686-1.878m-140 132.186c-6.554 1.043-11.287 3.376-16.391 8.08-3.607 3.325-4.644 5.044-5.174 8.576-.417 2.781-1.176 4.418-2.049 4.418-1.079 0-1.386 2.003-1.386 9.057 0 10.983 1.562 18.016 4.152 18.693 1.017.266 1.848.975 1.848 1.575 0 .601 2.246 3.235 4.992 5.853 6.414 6.118 13.125 8.252 23.923 7.607 12.796-.765 19.256-5.569 25.658-19.082 3.347-7.066 3.646-8.377 3.19-14-.687-8.47-5.442-18.905-9.368-20.561-1.592-.671-3.57-2.666-4.395-4.431-1.2-2.57-2.419-3.438-6.1-4.346-6.916-1.708-13.877-2.238-18.9-1.439m-228.006 1.008c-8.814 2.681-17.002 9.345-20.676 16.827-2.491 5.073-2.818 6.841-2.815 15.239.003 11.032 1.589 15.028 8.712 21.944 6.73 6.534 11.008 8.352 20.785 8.831 11.458.562 18.083-1.848 24.404-8.879 6.167-6.859 8.596-13.773 8.596-24.465 0-6.628-.33-8.62-1.5-9.069-.829-.319-1.5-1.803-1.5-3.321 0-3.399-3.33-8.414-8.174-12.312-5.766-4.639-20.181-7.122-27.832-4.795m111.506.393c-4.994 1.651-11.169 5.563-14.693 9.31-4.114 4.373-7.99 13.772-8.548 20.729-.612 7.615 2.368 15.463 8.63 22.732 3.65 4.238 4.789 4.923 9.14 5.5 3.224.428 4.971 1.142 4.971 2.031 0 1.07 2.195 1.371 10 1.371 8.033 0 10-.283 10-1.439 0-.946 1.599-1.678 4.674-2.139 6.266-.94 12.162-6.338 14.843-13.59 2.669-7.216 2.723-22.296.106-29.148-2.262-5.923-9.435-11.943-16.938-14.216-7.316-2.215-17.369-2.732-22.185-1.141M675 1168.99c-133.981.486-140.697.596-144.737 2.363-2.331 1.02-5.593 3.398-7.25 5.285-2.737 3.117-3.013 4.073-3.013 10.43 0 7.752 3.01 15.425 7.204 18.362 2.023 1.417 28.571 1.57 272.605 1.57h270.364l5.365-5.584c5.837-6.075 7.363-10.691 6.003-18.159-1.703-9.351-6.844-12.473-23.541-14.294-8.593-.938-119.61-.93-383 .027m-28.764 119.989c-4.621 1.096-10.976 5.545-13.242 9.271-2.805 4.613-3.293 7.998-2.509 17.409.672 8.065.931 8.755 6.426 17.122 3.15 4.796 9.561 13.894 14.248 20.219s11.789 16.392 15.784 22.371 8.117 11.093 9.16 11.366c1.14.298 1.897 1.377 1.897 2.705 0 1.215 1.053 3.199 2.341 4.408 1.287 1.21 3.389 4.438 4.67 7.175s2.876 4.975 3.543 4.975c.666 0 2.373 2.362 3.793 5.25 3.089 6.282 8.259 12.75 10.191 12.75 1.632 0 3.462 3.054 3.462 5.779 0 1.051.957 2.768 2.128 3.816 1.17 1.048 4.781 5.843 8.025 10.655 3.244 4.813 6.562 8.75 7.373 8.75.88 0 1.474.945 1.474 2.345 0 1.29.949 3.202 2.108 4.25s3.2 4.059 4.535 6.691 3.93 6.457 5.767 8.5 8.967 12.312 15.844 22.821c7.88 12.041 13.907 20.177 16.298 22l3.794 2.893h54.544l3.516-3.409c1.934-1.875 4.23-4.8 5.102-6.5 4.485-8.748 7.41-13.605 11.221-18.636 2.311-3.05 4.898-7.212 5.75-9.25.851-2.038 2.186-3.705 2.967-3.705s1.734-1.013 2.119-2.25 2.169-3.887 3.964-5.888 3.57-5.038 3.946-6.75 1.28-3.112 2.009-3.112c1.683 0 17.475-19.953 17.498-22.109.01-.885 1.723-3.585 3.806-6 6.659-7.718 9.98-12.319 23.722-32.87 7.402-11.068 15.224-22.239 17.382-24.823s6.698-9.76 10.088-15.948c3.39-6.187 6.801-11.25 7.579-11.25s2.073-1.578 2.879-3.506c.806-1.929 2.589-4.516 3.962-5.75s4.367-5.957 6.653-10.494 4.784-8.25 5.552-8.25c1.094 0 1.395-2.018 1.395-9.35 0-8.693-.2-9.626-2.851-13.286-3.935-5.432-8.527-9.097-12.93-10.32-4.408-1.224-301.83-1.287-306.983-.065M678 1323.55c0 2.141 2.444 6.687 8.147 15.155 2.669 3.963 4.853 7.441 4.853 7.73 0 1.368 7.765 12.568 11.566 16.682 2.346 2.54 5.437 6.929 6.868 9.753 1.432 2.825 3.494 5.693 4.584 6.374 1.09.68 1.982 2.238 1.982 3.462 0 1.223 1.294 3.703 2.876 5.509s5.245 7.335 8.139 12.285 8.291 13.275 11.993 18.5 8.855 12.724 11.451 16.664c2.859 4.339 5.608 7.387 6.973 7.73 1.613.404 3.199 2.63 5.586 7.836 1.833 3.998 5.448 9.745 8.033 12.77s5.818 7.3 7.186 9.5 4.184 6.025 6.258 8.5 4.22 5.482 4.768 6.682c1.094 2.396 4.251 3.877 9.941 4.665 4.537.628 7.921-1.711 10.886-7.524 1.119-2.193 3.35-4.738 4.959-5.655 1.809-1.032 4.549-4.612 7.187-9.389 2.659-4.815 4.897-7.731 5.947-7.75.925-.016 1.998-1.042 2.385-2.279s1.992-3.729 3.569-5.537 3.944-5.408 5.26-8 6.184-9.888 10.817-16.213 10.815-15.1 13.738-19.5 6.582-9.35 8.131-11 3.558-4.8 4.465-7 2.688-5.379 3.959-7.064 3.959-6.185 5.973-10c2.015-3.815 4.94-8.286 6.5-9.936 10.405-11.005 22.02-28.385 22.02-32.948 0-.916 1.256-2.094 2.811-2.636 2.428-.846 5.189-5.229 5.189-8.237 0-.373-55.125-.679-122.5-.679-109.967 0-122.5.159-122.5 1.55m139.5 252.467c-3.292.919-59.15 2.983-80.717 2.983-13.206 0-13.565.057-14.153 2.25-.331 1.237-.609 21.101-.616 44.141l-.014 41.891 8.352-.521c4.969-.31 9.324-1.143 10.75-2.055 2.517-1.61 15.379-4.31 25.148-5.279 3.163-.314 5.75-.989 5.75-1.499s2.015-.928 4.477-.928c3.618 0 4.778-.459 6.045-2.393 1.595-2.435 7.696-4.581 13.171-4.634 3.388-.033 16.055-5.29 17.66-7.33.631-.802 4.422-2.619 8.424-4.038 9.658-3.426 11.986-4.702 16.718-9.165 4.679-4.413 9.37-7.431 11.559-7.436.854-.002 3.104-1.614 5-3.582s4.872-4.18 6.616-4.916c1.743-.735 3.708-2.387 4.366-3.671.659-1.284 2.921-4.135 5.028-6.335 4.331-4.523 5.873-9.524 5.912-19.168.04-10.166 2.602-9.344-28.833-9.242-15.204.05-28.993.467-30.643.927m54 72.164c-1.1.616-4.25 3.489-7 6.385-3.558 3.747-6.226 5.589-9.253 6.389-2.516.665-4.89 2.096-5.814 3.506-2.097 3.201-22.955 13.697-25.799 12.983-1.192-.299-6.457 1.026-11.892 2.993-5.363 1.942-14.362 4.689-19.997 6.105s-12.045 3.415-14.245 4.443-8.05 2.389-13 3.024-13.725 1.744-19.5 2.466c-5.775.721-13.313 2.147-16.75 3.168-5.64 1.676-6.295 2.15-6.711 4.857-2.861 18.606-4.161 81.037-1.707 81.985 3.051 1.18 14.25.357 27.518-2.021 18.884-3.385 27.275-5.75 35.063-9.881 3.573-1.896 8.654-3.73 11.292-4.076 5.87-.771 21.295-5.624 21.295-6.701 0-1.021 12.755-7.427 20.871-10.482 9.217-3.469 12.085-5.132 13.247-7.683.567-1.244 3.396-3.678 6.288-5.407 2.891-1.729 7.173-5.302 9.516-7.939s5.372-5.986 6.732-7.442c4.672-5 5.321-10.548 5.334-45.603.011-30.064-.107-32.248-1.738-32.22-.962.017-2.65.535-3.75 1.151m-2.25 122.039c-1.237.597-2.25 1.814-2.25 2.704 0 1.964-37.095 20.46-50 24.931-4.675 1.619-10.841 3.874-13.702 5.011s-8.936 2.994-13.5 4.127-11.887 3.714-16.274 5.736c-5.622 2.591-9.754 3.787-14 4.052-3.313.206-7.377.984-9.03 1.728s-7.953 1.907-14 2.584-12.231 1.845-13.744 2.595l-2.75 1.363v24.975c0 15.983-.36 24.974-1 24.974-1.087 0-1.444 26.68-.393 29.418 1.935 5.042 48.325-2.573 79.393-13.032 20.339-6.847 60-28.609 60-32.923 0-.804.637-1.463 1.415-1.463 2.073 0 9.201-8.492 11.82-14.082 1.246-2.66 2.828-4.854 3.515-4.877.975-.032 1.25-7.63 1.25-34.541V1769l-2.25.068c-1.237.037-3.263.556-4.5 1.152m4.408 120.342c-1.503 1.883-5.274 5.05-8.38 7.037-8.334 5.331-25.852 13.279-29.067 13.188-3.511-.1-7.211 1.823-7.211 3.748 0 .806-.914 1.465-2.033 1.465s-4.304 1.15-7.078 2.556-7.372 2.806-10.217 3.111-9.447 1.849-14.672 3.431c-5.225 1.581-14.667 4.036-20.982 5.454s-11.714 2.927-12 3.352c-1.337 1.993-19.835 6.11-27.518 6.125-5.741.011-9.2.56-12.25 1.944l-4.25 1.929v39.514c0 45.96-1.346 41.584 12.788 41.584 13.971 0 21.403-1.014 21.92-2.991.535-2.047 10.893-4.667 23.856-6.035 11.699-1.234 36.833-9.334 44.822-14.444 3.191-2.041 7.221-3.824 8.957-3.963 6.271-.501 26.036-12.958 27.065-17.057.408-1.623 1.33-2.51 2.611-2.51 1.09 0 1.981-.383 1.981-.851s3.118-4.101 6.928-8.074 7.41-8.606 8-10.298c.633-1.817 1.072-11.814 1.072-24.426 0-13.567.365-21.351 1-21.351.611 0 1-4.655 1-11.965 0-10.511-.219-12.082-1.805-12.931-1.452-.777-2.339-.297-4.537 2.458m-1.52 122.18c-1.092 2.041-10.011 7.258-12.407 7.258-.824 0-1.708.804-1.965 1.786-.317 1.214-4.118 3.172-11.866 6.113-6.27 2.38-13.538 5.152-16.152 6.159-6.226 2.401-39.382 12.763-47.936 14.982-3.679.954-11.142 2.252-16.586 2.885-10.927 1.27-30.815 5.504-32.592 6.938-.624.503-3.704 1.482-6.844 2.176l-5.711 1.261-1.167 5.6c-2.185 10.486.508 32.1 4 32.1 1.012 0 2.053 1.253 2.631 3.169.526 1.742 2.227 4.105 3.78 5.25 2.767 2.04 3.772 2.081 50.5 2.081 26.222 0 57.019-.21 68.436-.467l20.759-.467 3.741-3.831 3.741-3.83v-45.189c0-41.551-.135-45.214-1.683-45.512-.925-.179-2.131.514-2.679 1.538" fill-rule="evenodd" style="fill: inherit;"/></svg>