<svg xmlns="http://www.w3.org/2000/svg" xmlns:xlink="http://www.w3.org/1999/xlink" data-name="Layer 1" preserveAspectRatio="xMidYMid meet" version="1.0" viewBox="0.0 -0.1 251.0 213.8" zoomAndPan="magnify" style="fill: rgb(255, 255, 255);" original_string_length="1571" width="118.73928871609121px" height="101.2522298324487px"><g data-name="Path 2525" id="__id3_srq2dclt6"><path d="M238.6,200.11c2.17.02,3.95-1.72,3.97-3.89,0-.09,0-.18,0-.27,0-2.95-1.78-4.36-5.43-4.36h-5.89v15.43h2.22v-6.73h2.72l.06.08,4.23,6.64h2.37l-4.55-6.88.3-.04ZM236.04,198.56h-2.57v-5.22h3.26c1.68,0,3.6.28,3.6,2.48,0,2.53-1.94,2.74-4.3,2.74" style="fill: inherit;"/></g><g data-name="Path 2520" id="__id4_srq2dclt6"><path d="M180.77,180.77h-31.44v-49.23c0-11.74-.21-26.85-16.35-26.85s-18.88,12.79-18.88,26v50.08h-31.44v-101.24h30.18v13.84h.42c6.15-10.52,17.6-16.81,29.78-16.35,31.86,0,37.74,20.96,37.74,48.22v55.54ZM47.2,65.69c-10.08,0-18.24-8.16-18.25-18.24s8.16-18.24,18.24-18.25c10.08,0,18.24,8.16,18.25,18.24s-8.16,18.24-18.24,18.25h0M62.92,180.77h-31.47v-101.24h31.47v101.24ZM196.44.01H15.66C7.11-.08.1,6.76,0,15.31v181.54c.1,8.55,7.11,15.4,15.66,15.31h180.79c8.57.11,15.6-6.74,15.72-15.31V15.29C212.04,6.73,205.01-.11,196.44,0" style="fill: inherit;"/></g><g id="__id5_srq2dclt6"><path d="M236.31,184.72c-7.99.08-14.4,6.62-14.33,14.61.08,7.99,6.62,14.4,14.61,14.33,7.99-.08,14.4-6.62,14.33-14.61-.08-7.88-6.45-14.25-14.33-14.33h-.28M236.31,212c-7.01.12-12.78-5.47-12.9-12.47s5.47-12.78,12.47-12.9c7.01-.12,12.78,5.47,12.9,12.47v.21c.15,6.85-5.29,12.53-12.14,12.68h-.33" data-name="Path 2526" style="fill: inherit;"/></g></svg>